# xmcd
#
# Track frame offsets:
#	150
#	17784
#	31990
#	44800
#	68623
#	83185
#	99175
#	116669
#	132991
#	152559
#	179427
#	201580
#	222837
#
# Disc length: 3319
#
# Revision: 5
# Processed by: cddbd v1.5.1PL0 Copyright (c) Steve Scherf et al.
# Submitted via: CDex 1.50beta9
# Normalized: r4:TDELIM( - )
#
DISCID=b50cf50d
DTITLE=Various Artist - Rolling Stone - New Voices Vol. 41
DYEAR=2000
DGENRE=
TTITLE0=Frank Black - Bullet
TTITLE1=The Flaming Stars - Right Face Right Time
TTITLE2=Uncle Ho - I Don't Care If You Like Me
TTITLE3=Steve Wynn - Death Valley Rain
TTITLE4=Eskobar - On a Train
TTITLE5=Kings of Convenience - Failure
TTITLE6=Aimee Mann - Susan
TTITLE7=Geoff Muldaur - Drop Down Mama
TTITLE8=Russell Simins - No Straight Line
TTITLE9=King Cobb Steelie - The Situation
TTITLE10=Nicole Willis - All the Time
TTITLE11=Talib Kweli and Hitek - Touch You
TTITLE12=Naomi - He never knew what
EXTD=YEAR: 2000
EXTT0=
EXTT1=
EXTT2=
EXTT3=
EXTT4=
EXTT5=
EXTT6=
EXTT7=
EXTT8=
EXTT9=
EXTT10=
EXTT11=
EXTT12=
PLAYORDER=
